<svg width="163" height="120" viewBox="0 0 163 120" fill="none" xmlns="http://www.w3.org/2000/svg">
<path d="M0 0V-5H-5V0H0ZM0 5H163V-5H0V5ZM5 120V0H-5V120H5Z" fill="#282828" mask="url(#path-1-inside-1_20_48)"/>
<mask id="mask0_20_48" style="mask-type:alpha" maskUnits="userSpaceOnUse" x="0" y="0" width="163" height="120">
<rect x="2.5" y="2.5" width="158" height="115" fill="#F7F7F7" stroke="#282828" stroke-width="5"/>
</mask>
<g mask="url(#mask0_20_48)">
<rect width="10.5367" height="214.247" transform="matrix(0.805304 0.592862 -0.805304 0.592862 77.5341 -78.0369)" fill="#282828"/>
<rect width="10.5367" height="214.247" transform="matrix(0.805304 0.592862 -0.805304 0.592862 93.0905 -66.5842)" fill="#282828"/>
<rect width="10.5367" height="214.247" transform="matrix(0.805304 0.592862 -0.805304 0.592862 108.647 -55.1318)" fill="#282828"/>
<rect width="10.5367" height="214.247" transform="matrix(0.805304 0.592862 -0.805304 0.592862 124.203 -43.6792)" fill="#282828"/>
<rect width="10.5367" height="214.247" transform="matrix(0.805304 0.592862 -0.805304 0.592862 139.759 -32.2267)" fill="#282828"/>
<rect width="10.5367" height="214.247" transform="matrix(0.805304 0.592862 -0.805304 0.592862 155.316 -20.7742)" fill="#282828"/>
<rect width="10.5367" height="214.247" transform="matrix(0.805304 0.592862 -0.805304 0.592862 264.21 59.3936)" fill="#282828"/>
</g>
</svg>
