<svg width="163" height="120" viewBox="0 0 163 120" fill="none" xmlns="http://www.w3.org/2000/svg">
<path d="M163 120V125H168V120H163ZM158 0V120H168V0H158ZM163 115H0V125H163V115Z" fill="#282828" mask="url(#path-1-inside-1_20_63)"/>
<mask id="mask0_20_63" style="mask-type:alpha" maskUnits="userSpaceOnUse" x="0" y="0" width="163" height="120">
<rect x="2.5" y="2.5" width="158" height="115" fill="#F7F7F7" stroke="#282828" stroke-width="5"/>
</mask>
<g mask="url(#mask0_20_63)">
<rect width="10.5367" height="214.247" transform="matrix(0.805304 0.592862 -0.805304 0.592862 77.5341 -78.0369)" fill="#282828"/>
<rect width="10.5367" height="214.247" transform="matrix(0.805304 0.592862 -0.805304 0.592862 186.428 2.13086)" fill="#282828"/>
<rect width="10.5367" height="214.247" transform="matrix(0.805304 0.592862 -0.805304 0.592862 201.985 13.5834)" fill="#282828"/>
<rect width="10.5367" height="214.247" transform="matrix(0.805304 0.592862 -0.805304 0.592862 217.541 25.0359)" fill="#282828"/>
<rect width="10.5367" height="214.247" transform="matrix(0.805304 0.592862 -0.805304 0.592862 233.098 36.4884)" fill="#282828"/>
<rect width="10.5367" height="214.247" transform="matrix(0.805304 0.592862 -0.805304 0.592862 248.654 47.9409)" fill="#282828"/>
<rect width="10.5367" height="214.247" transform="matrix(0.805304 0.592862 -0.805304 0.592862 264.21 59.3936)" fill="#282828"/>
</g>
</svg>
